<svg xmlns="http://www.w3.org/2000/svg" viewBox="0 0 982.08 504.42"><defs><style>.cls-1,.cls-2{fill:#fff;}.cls-1{stroke:#fff;stroke-miterlimit:10;}</style></defs><title>horizontal-negativo</title><g id="Layer_2" data-name="Layer 2"><g id="Layer_1-2" data-name="Layer 1"><path class="cls-1" d="M517.78,462.57a50,50,0,0,1-19.76-3.8,44,44,0,0,1-15.32-10.69,47.72,47.72,0,0,1-9.87-16.67,64.58,64.58,0,0,1-3.47-21.71A62.92,62.92,0,0,1,472.88,388a47.81,47.81,0,0,1,9.86-16.43,43,43,0,0,1,15.14-10.47,50.28,50.28,0,0,1,19.44-3.65,55.78,55.78,0,0,1,15.55,2.08,44.69,44.69,0,0,1,12.87,5.93,35.19,35.19,0,0,1,9.35,9.21,32.79,32.79,0,0,1,5.1,11.94h-8a19.88,19.88,0,0,0-3.56-8.38,27.43,27.43,0,0,0-7.36-6.9,39.72,39.72,0,0,0-10.55-4.72,47.23,47.23,0,0,0-13.24-1.76,44.83,44.83,0,0,0-16.3,2.87,34,34,0,0,0-12.73,8.57,39.53,39.53,0,0,0-8.28,14.07,64.23,64.23,0,0,0,0,38.61,40.93,40.93,0,0,0,8.28,14.3,34.52,34.52,0,0,0,12.78,8.84,43.41,43.41,0,0,0,16.43,3q12.6,0,21.85-4.81A45.78,45.78,0,0,0,555.19,437V418.78h-28v-7.41h35.36v49.34h-4.26l-3.24-13.51a37.42,37.42,0,0,1-7.77,7.17,42.24,42.24,0,0,1-9,4.72,50.08,50.08,0,0,1-9.95,2.64A66,66,0,0,1,517.78,462.57Z"/><path class="cls-1" d="M653.91,460.71H646.5V359.34h7.41Z"/><path class="cls-1" d="M821.6,460.71h-8.14l-10.09-26.94a67.24,67.24,0,0,0-3.29-7.31,27,27,0,0,0-4.21-6,18.68,18.68,0,0,0-5.51-4,16.67,16.67,0,0,0-7.27-1.48H747.63v45.73h-7.4V359.34h45.64a64.94,64.94,0,0,1,12.36,1.16,30.46,30.46,0,0,1,10.65,4.12,21.26,21.26,0,0,1,7.45,8.19q2.77,5.24,2.77,13.38a34.35,34.35,0,0,1-1.25,9.49,24.5,24.5,0,0,1-3.79,7.86,23,23,0,0,1-6.48,5.93,28.51,28.51,0,0,1-9.21,3.57,38.12,38.12,0,0,1,4.72,4.25,25.24,25.24,0,0,1,3.19,4.36,34.77,34.77,0,0,1,2.41,5.09q1.06,2.77,2.45,6.39Zm-74-53.14h35.18a64.5,64.5,0,0,0,12.87-1.11,22.4,22.4,0,0,0,8.84-3.66,15.08,15.08,0,0,0,5.14-6.61,26.5,26.5,0,0,0,1.67-10q0-10.47-6.62-14.95t-19.77-4.49H747.63Z"/><path class="cls-1" d="M981.33,460.71h-8.88L960,428.13h-49.9q-2.68,7.68-5.83,16.25l-6,16.33h-7.87q5-13.14,9.86-25.73t9.67-25q4.81-12.46,9.68-25.05t9.86-25.64H940Zm-23.42-38.42L934.4,365.91l-22.32,56.38Z"/><path class="cls-2" d="M254,504.42c-68,0-131.8-25.75-179.54-72.49C26.45,384.88,0,321.71,0,254,0,114,114,0,254,0V23C126.63,23,23,126.63,23,254S124.47,481.44,254,481.44Z"/><path class="cls-2" d="M251.84,458a205.49,205.49,0,0,1-61.25-9.34C82.32,414.84,21.73,299.25,55.53,191A205.71,205.71,0,0,1,313.19,55.92c1.34.43,2.67.85,4,1.29C458.06,104,457.48,243.65,457.46,245.07l-23,0A182.55,182.55,0,0,0,309.67,78.94c-1.1-.37-2.22-.73-3.35-1.08a182.7,182.7,0,0,0-228.85,120c-30,96.17,23.79,198.84,120,228.87a182.84,182.84,0,0,0,181.24-42.81l15.93,16.56A206,206,0,0,1,251.84,458Z"/><path class="cls-2" d="M247.31,410c-43.13,0-84.58-18.49-114.68-51.42a156.61,156.61,0,0,1-40-127.51C105,142.34,182.88,80.7,270,90.84a160,160,0,0,1,93.56,273.21L347.5,347.63a137,137,0,0,0-80.13-234C192.82,105.07,126,158,115.44,234.26A133.67,133.67,0,0,0,149.59,343.1c27.17,29.72,65.56,45.59,104.44,43.74v23C251.58,410,249.76,410,247.31,410Z"/><path class="cls-2" d="M251.74,359.07a111.24,111.24,0,0,1-11-221.92,119.76,119.76,0,0,1,13.25-.5v22.93a95.4,95.4,0,0,0-10.95.44,88.25,88.25,0,0,0,17.73,175.61c45.74-4.62,80.54-44.57,79.24-90.53h23c1.64,58-42.26,107.58-99.93,113.4Q257.41,359.07,251.74,359.07Z"/></g></g></svg>