<svg xmlns="http://www.w3.org/2000/svg" viewBox="0 0 986.33 507.74"><defs><style>.cls-1{fill:#211e1f;stroke:#000;stroke-miterlimit:10;}.cls-2{fill:#0065a1;}.cls-3{fill:#0080bb;}.cls-4{fill:#aa182c;}.cls-5{fill:#c10230;}</style></defs><title>horizontal</title><g id="Layer_2" data-name="Layer 2"><g id="Layer_1-2" data-name="Layer 1"><path class="cls-1" d="M519,459.33a50.54,50.54,0,0,1-19.9-3.82,44.34,44.34,0,0,1-15.42-10.77A47.89,47.89,0,0,1,473.74,428a65.14,65.14,0,0,1-3.49-21.86,63.22,63.22,0,0,1,3.54-21.8,48,48,0,0,1,9.93-16.54A43.11,43.11,0,0,1,499,357.24a50.39,50.39,0,0,1,19.57-3.68,56.25,56.25,0,0,1,15.66,2.09,45.11,45.11,0,0,1,13,6,35.64,35.64,0,0,1,9.41,9.27,32.81,32.81,0,0,1,5.13,12h-8a19.93,19.93,0,0,0-3.58-8.43,27.65,27.65,0,0,0-7.41-7A40,40,0,0,0,532,362.78,47.33,47.33,0,0,0,518.71,361a44.92,44.92,0,0,0-16.4,2.89,34.3,34.3,0,0,0-12.82,8.62,40,40,0,0,0-8.34,14.16,64.87,64.87,0,0,0,0,38.87,41.28,41.28,0,0,0,8.34,14.39,34.76,34.76,0,0,0,12.86,8.9,43.79,43.79,0,0,0,16.54,3q12.68,0,22-4.84a46.25,46.25,0,0,0,15.75-13.42V415.25H528.49v-7.46h35.6v49.67H559.8l-3.26-13.6a38.25,38.25,0,0,1-7.83,7.22,43,43,0,0,1-9.08,4.75,51.3,51.3,0,0,1-10,2.66A66.74,66.74,0,0,1,519,459.33Z"/><path class="cls-1" d="M656,457.46h-7.46v-102H656Z"/><path class="cls-1" d="M824.81,457.46h-8.2l-10.16-27.12a69,69,0,0,0-3.31-7.36,26.82,26.82,0,0,0-4.24-6,18.7,18.7,0,0,0-5.54-4.05,16.76,16.76,0,0,0-7.32-1.49H750.35v46h-7.46v-102h46a64.86,64.86,0,0,1,12.43,1.17A30.58,30.58,0,0,1,812,360.73a21.4,21.4,0,0,1,7.5,8.25q2.81,5.26,2.8,13.46A34.8,34.8,0,0,1,821,392a24.46,24.46,0,0,1-3.82,7.92,23.09,23.09,0,0,1-6.52,6,28.47,28.47,0,0,1-9.27,3.59,37.13,37.13,0,0,1,4.75,4.29,25.7,25.7,0,0,1,3.22,4.38,37.38,37.38,0,0,1,2.42,5.12q1.07,2.81,2.47,6.43ZM750.35,404h35.41a64.47,64.47,0,0,0,13-1.12,22.49,22.49,0,0,0,8.9-3.68,15.24,15.24,0,0,0,5.18-6.66,26.81,26.81,0,0,0,1.67-10.07q0-10.53-6.66-15t-19.9-4.53H750.35Z"/><path class="cls-1" d="M985.59,457.46h-9l-12.49-32.8H913.92q-2.7,7.74-5.87,16.36l-6,16.44h-7.92q5-13.23,9.92-25.9t9.74-25.21q4.85-12.54,9.74-25.21t9.92-25.81h10.53ZM962,418.79,938.34,362l-22.46,56.75Z"/><path class="cls-2" d="M255.7,507.74c-68.48,0-132.67-25.92-180.72-73C26.63,387.42,0,323.83,0,255.71,0,114.71,114.71,0,255.7,0V23.13c-128.24,0-232.57,104.34-232.57,232.58s102.16,228.9,232.57,228.9Z"/><path class="cls-3" d="M253.49,461a206.94,206.94,0,0,1-61.65-9.41c-109-34-170-150.37-135.94-259.35a207.05,207.05,0,0,1,259.35-136l4,1.3C461.07,104.71,460.5,245.25,460.47,246.68l-23.14,0A183.78,183.78,0,0,0,311.71,79.46c-1.11-.37-2.23-.73-3.37-1.09A183.92,183.92,0,0,0,78,199.13c-30.22,96.81,24,200.15,120.75,230.38a184,184,0,0,0,182.44-43.1l16,16.67A207.29,207.29,0,0,1,253.49,461Z"/><path class="cls-4" d="M248.94,412.73c-43.41,0-85.13-18.61-115.44-51.76A157.68,157.68,0,0,1,93.28,232.62C105.69,143.28,184.09,81.23,271.8,91.43a161.06,161.06,0,0,1,94.18,275l-16.19-16.53a137.9,137.9,0,0,0-80.66-235.51c-75-8.65-142.27,44.61-152.93,121.4a134.56,134.56,0,0,0,34.37,109.55c27.36,29.91,66,45.89,105.13,44v23.19C253.23,412.69,251.4,412.73,248.94,412.73Z"/><path class="cls-5" d="M253.4,361.43a112,112,0,0,1-11-223.38,118.65,118.65,0,0,1,13.33-.5v23.08a96.68,96.68,0,0,0-11,.44,88.83,88.83,0,1,0,17.85,176.76c46-4.64,81.07-44.85,79.76-91.12h23.14C367.08,305,322.9,355,264.85,360.86Q259.1,361.43,253.4,361.43Z"/></g></g></svg>