<svg xmlns="http://www.w3.org/2000/svg" viewBox="0 0 457.46 504.42"><defs><style>.cls-1{fill:#fff;}</style></defs><title>solo-logo-negativo</title><g id="Layer_2" data-name="Layer 2"><g id="Layer_1-2" data-name="Layer 1"><path class="cls-1" d="M254,504.42c-68,0-131.8-25.75-179.54-72.49C26.45,384.88,0,321.71,0,254,0,114,114,0,254,0V23C126.63,23,23,126.63,23,254S124.47,481.44,254,481.44Z"/><path class="cls-1" d="M251.84,458a205.49,205.49,0,0,1-61.25-9.34C82.32,414.84,21.73,299.25,55.53,191A205.71,205.71,0,0,1,313.19,55.92c1.34.43,2.67.85,4,1.29C458.06,104,457.48,243.65,457.46,245.07l-23,0A182.55,182.55,0,0,0,309.67,78.94c-1.1-.37-2.22-.73-3.35-1.08a182.7,182.7,0,0,0-228.85,120c-30,96.17,23.79,198.84,120,228.87a182.84,182.84,0,0,0,181.24-42.81l15.93,16.56A206,206,0,0,1,251.84,458Z"/><path class="cls-1" d="M247.31,410c-43.13,0-84.58-18.49-114.68-51.42a156.61,156.61,0,0,1-40-127.51C105,142.34,182.88,80.7,270,90.84a160,160,0,0,1,93.56,273.21L347.5,347.63a137,137,0,0,0-80.13-234C192.82,105.07,126,158,115.44,234.26A133.67,133.67,0,0,0,149.59,343.1c27.17,29.72,65.56,45.59,104.44,43.74v23C251.58,410,249.76,410,247.31,410Z"/><path class="cls-1" d="M251.74,359.07a111.24,111.24,0,0,1-11-221.92,119.76,119.76,0,0,1,13.25-.5v22.93a95.4,95.4,0,0,0-10.95.44,88.25,88.25,0,0,0,17.73,175.61c45.74-4.62,80.54-44.57,79.24-90.53h23c1.64,58-42.26,107.58-99.93,113.4Q257.41,359.07,251.74,359.07Z"/></g></g></svg>