<svg xmlns="http://www.w3.org/2000/svg" viewBox="0 0 460.47 507.74"><defs><style>.cls-1{fill:#0065a1;}.cls-2{fill:#0080bb;}.cls-3{fill:#aa182c;}.cls-4{fill:#c10230;}</style></defs><title>solo-logo</title><g id="Layer_2" data-name="Layer 2"><g id="Layer_1-2" data-name="Layer 1"><path class="cls-1" d="M255.7,507.74c-68.48,0-132.67-25.92-180.72-73C26.63,387.42,0,323.83,0,255.71,0,114.71,114.71,0,255.7,0V23.13c-128.24,0-232.57,104.34-232.57,232.58s102.16,228.9,232.57,228.9Z"/><path class="cls-2" d="M253.49,461a206.94,206.94,0,0,1-61.65-9.41c-109-34-170-150.37-135.94-259.35a207.05,207.05,0,0,1,259.35-136l4,1.3C461.07,104.71,460.5,245.25,460.47,246.68l-23.14,0A183.78,183.78,0,0,0,311.71,79.46c-1.11-.37-2.23-.73-3.37-1.09A183.92,183.92,0,0,0,78,199.13c-30.22,96.81,24,200.15,120.75,230.38a184,184,0,0,0,182.44-43.1l16,16.67A207.29,207.29,0,0,1,253.49,461Z"/><path class="cls-3" d="M248.94,412.73c-43.41,0-85.13-18.61-115.44-51.76A157.68,157.68,0,0,1,93.28,232.62C105.69,143.28,184.09,81.23,271.8,91.43a161.06,161.06,0,0,1,94.18,275l-16.19-16.53a137.9,137.9,0,0,0-80.66-235.51c-75-8.65-142.27,44.61-152.93,121.4a134.56,134.56,0,0,0,34.37,109.55c27.36,29.91,66,45.89,105.13,44v23.19C253.23,412.69,251.4,412.73,248.94,412.73Z"/><path class="cls-4" d="M253.4,361.43a112,112,0,0,1-11-223.38,118.65,118.65,0,0,1,13.33-.5v23.08a96.68,96.68,0,0,0-11,.44,88.83,88.83,0,1,0,17.85,176.76c46-4.64,81.07-44.85,79.76-91.12h23.14C367.08,305,322.9,355,264.85,360.86Q259.1,361.43,253.4,361.43Z"/></g></g></svg>