<?xml version="1.0" encoding="utf-8"?>
<!-- Generator: Adobe Illustrator 24.0.1, SVG Export Plug-In . SVG Version: 6.00 Build 0)  -->
<svg version="1.1" id="Layer_1" xmlns="http://www.w3.org/2000/svg" xmlns:xlink="http://www.w3.org/1999/xlink" x="0px" y="0px"
	 viewBox="0 0 516.6 679.6" style="enable-background:new 0 0 516.6 679.6;" xml:space="preserve">
<style type="text/css">
	.st0{fill:#FFFFFF;stroke:#FFFFFF;stroke-miterlimit:10;}
	.st1{fill:#0065A1;}
	.st2{fill:#0080BB;}
	.st3{fill:#AA182C;}
	.st4{fill:#C10230;}
</style>
<title>preferente</title>
<g id="Layer_2_1_">
	<g id="Layer_1-2">
		<path class="st0" d="M49.2,679.1c-6.8,0.1-13.6-1.2-19.9-3.8c-5.8-2.5-11.1-6.1-15.4-10.8C9.5,659.7,6.1,654,4,647.8
			c-2.4-7-3.6-14.4-3.5-21.9c-0.1-7.4,1.1-14.8,3.5-21.8c2.2-6.1,5.6-11.8,10-16.5c4.2-4.6,9.4-8.2,15.2-10.6
			c6.2-2.5,12.9-3.8,19.6-3.7c5.3,0,10.6,0.7,15.7,2.1c4.6,1.3,9,3.3,12.9,6c3.7,2.5,6.9,5.6,9.4,9.3c2.5,3.6,4.2,7.7,5.1,12h-8
			c-0.5-3-1.8-5.9-3.6-8.4c-2-2.8-4.5-5.1-7.4-7c-3.3-2.1-6.9-3.7-10.6-4.8c-4.3-1.2-8.8-1.8-13.3-1.8c-5.6-0.1-11.2,0.9-16.4,2.9
			c-4.9,1.9-9.3,4.8-12.8,8.6c-3.7,4.1-6.6,8.9-8.4,14.2c-4,12.7-4,26.2,0,38.9c1.8,5.3,4.6,10.2,8.4,14.4c3.5,3.9,7.9,7,12.9,8.9
			c5.3,2.1,10.9,3.1,16.5,3c8.4,0,15.8-1.6,22-4.8c6.2-3.2,11.5-7.8,15.7-13.4V635H58.7v-7.5h35.6v49.7h-4.3l-3.3-13.6
			c-2.2,2.8-4.9,5.2-7.8,7.3c-2.8,1.9-5.9,3.5-9.1,4.8c-3.2,1.2-6.6,2.1-10,2.7C56.4,678.8,52.8,679.1,49.2,679.1z"/>
		<path class="st0" d="M186.3,677.2h-7.5v-102h7.5L186.3,677.2z"/>
		<path class="st0" d="M355.1,677.2h-8.2l-10.2-27.1c-1-2.5-2.1-5-3.3-7.4c-1.1-2.2-2.6-4.2-4.2-6c-1.6-1.7-3.5-3-5.5-4
			c-2.3-1-4.8-1.6-7.3-1.5h-35.7v46h-7.5v-102h46c4.2,0,8.3,0.4,12.4,1.2c3.8,0.7,7.4,2.1,10.7,4.1c3.2,2,5.8,4.9,7.5,8.2
			c1.9,3.5,2.8,8,2.8,13.5c0,3.2-0.4,6.4-1.3,9.5c-0.8,2.8-2.1,5.5-3.8,7.9c-1.8,2.4-4,4.4-6.5,6c-2.9,1.7-6,2.9-9.3,3.6
			c1.7,1.3,3.3,2.7,4.8,4.3c1.2,1.3,2.3,2.8,3.2,4.4c0.9,1.6,1.7,3.4,2.4,5.1c0.7,1.9,1.5,4,2.5,6.4L355.1,677.2z M280.6,623.8H316
			c4.4,0.1,8.7-0.3,13-1.1c3.2-0.6,6.2-1.8,8.9-3.7c2.3-1.7,4.1-4,5.1-6.7c1.2-3.2,1.8-6.6,1.7-10.1c0-7-2.2-12-6.7-15
			c-4.4-3-11.1-4.5-19.9-4.5h-37.5V623.8z"/>
		<path class="st0" d="M515.8,677.2h-9l-12.5-32.8h-50.2c-1.8,5.2-3.8,10.6-5.9,16.4l-6,16.4h-7.9c3.3-8.8,6.6-17.5,9.9-25.9
			s6.5-16.9,9.8-25.2c3.2-8.4,6.5-16.8,9.7-25.2c3.3-8.4,6.6-17.1,9.9-25.8h10.5L515.8,677.2z M492.3,638.6l-23.7-56.8l-22.5,56.8
			H492.3z"/>
		<path class="st1" d="M279.9,507.7c-68.5,0-132.7-25.9-180.7-73c-48.4-47.4-75-110.9-75-179.1C24.2,114.7,138.9,0,279.9,0v23.1
			c-128.2,0-232.6,104.3-232.6,232.6s102.2,228.9,232.6,228.9V507.7z"/>
		<path class="st2" d="M277.7,461c-20.9,0-41.7-3.2-61.7-9.4c-109-34-170-150.4-135.9-259.3c34-109.2,150.1-170.1,259.3-136
			c0,0,0,0,0,0l4,1.3c141.8,47.1,141.2,187.7,141.2,189.1h-23.1c-3-76.4-53-143-125.6-167.2l-3.4-1.1
			c-97-30.3-200.1,23.8-230.4,120.8c-30.2,96.8,24,200.1,120.8,230.4c64.1,20,134,3.5,182.4-43.1l16,16.7
			C382.7,440.2,331.2,461,277.7,461z"/>
		<path class="st3" d="M273.1,412.7c-43.4,0-85.1-18.6-115.4-51.8c-31.9-34.6-46.6-81.7-40.2-128.3C129.9,143.3,208.2,81.2,296,91.4
			c88.4,10.3,151.7,90.2,141.4,178.6c-4.2,36.6-20.9,70.6-47.2,96.4L374,349.9c54.4-53.3,55.3-140.6,2-195
			c-22.1-22.6-51.3-36.9-82.7-40.5c-75-8.7-142.3,44.6-152.9,121.4c-5.5,39.8,7.1,80,34.4,109.5c27.4,29.9,66,45.9,105.1,44v23.2
			C277.4,412.7,275.6,412.7,273.1,412.7z"/>
		<path class="st4" d="M277.6,361.4c-61.9-0.4-111.7-50.9-111.3-112.7c0.4-57,43.5-104.7,100.3-110.6c4.4-0.4,8.9-0.6,13.3-0.5v23.1
			c-3.7-0.1-7.3,0.1-11,0.4c-48.8,4.7-84.6,48.1-79.9,96.9c4.7,48.8,48.1,84.6,96.9,79.9c0.3,0,0.6-0.1,0.8-0.1
			c46-4.6,81.1-44.9,79.8-91.1h23.1C391.2,305,347.1,355,289,360.9C285.2,361.2,281.4,361.4,277.6,361.4z"/>
	</g>
</g>
</svg>
