<svg xmlns="http://www.w3.org/2000/svg" viewBox="0 0 513.21 677.63"><defs><style>.cls-1,.cls-2{fill:#fff;}.cls-1{stroke:#fff;stroke-miterlimit:10;}</style></defs><title>preferente-negativo</title><g id="Layer_2" data-name="Layer 2"><g id="Layer_1-2" data-name="Layer 1"><path class="cls-1" d="M48.92,677.13a50.1,50.1,0,0,1-19.77-3.8,44.15,44.15,0,0,1-15.32-10.69A47.74,47.74,0,0,1,4,646,64.58,64.58,0,0,1,.5,624.27,62.7,62.7,0,0,1,4,602.6a47.65,47.65,0,0,1,9.86-16.43A42.89,42.89,0,0,1,29,575.71a50.18,50.18,0,0,1,19.45-3.66A55.46,55.46,0,0,1,64,574.14a44.66,44.66,0,0,1,12.87,5.92,35.48,35.48,0,0,1,9.35,9.21,32.61,32.61,0,0,1,5.09,11.94h-8a19.79,19.79,0,0,0-3.56-8.37,27.26,27.26,0,0,0-7.36-6.9,39.3,39.3,0,0,0-10.56-4.72,46.76,46.76,0,0,0-13.24-1.76,44.6,44.6,0,0,0-16.29,2.87,34,34,0,0,0-12.73,8.56A39.78,39.78,0,0,0,11.33,605a64.43,64.43,0,0,0,0,38.61,41,41,0,0,0,8.29,14.3,34.58,34.58,0,0,0,12.78,8.85,43.56,43.56,0,0,0,16.43,3q12.59,0,21.85-4.81a45.72,45.72,0,0,0,15.64-13.33V633.34h-28v-7.41H93.73v49.35H89.47l-3.24-13.52a38.05,38.05,0,0,1-7.78,7.18,42.87,42.87,0,0,1-9,4.72,51.39,51.39,0,0,1-10,2.64A66.94,66.94,0,0,1,48.92,677.13Z"/><path class="cls-1" d="M185,675.28h-7.4V573.9H185Z"/><path class="cls-1" d="M352.74,675.28h-8.15L334.5,648.34a66.37,66.37,0,0,0-3.29-7.32,26.69,26.69,0,0,0-4.21-6,18.6,18.6,0,0,0-5.51-4,16.8,16.8,0,0,0-7.26-1.48H278.77v45.74h-7.41V573.9H317a64.94,64.94,0,0,1,12.36,1.16A30.39,30.39,0,0,1,340,579.18a21.25,21.25,0,0,1,7.45,8.19q2.78,5.24,2.78,13.38a34.68,34.68,0,0,1-1.25,9.49,24.56,24.56,0,0,1-3.79,7.87,22.84,22.84,0,0,1-6.49,5.92,28.11,28.11,0,0,1-9.21,3.57,36.66,36.66,0,0,1,4.72,4.26,25.61,25.61,0,0,1,3.2,4.35,37,37,0,0,1,2.41,5.09q1.05,2.78,2.45,6.39Zm-74-53.14H314A64.5,64.5,0,0,0,326.82,621a22.4,22.4,0,0,0,8.84-3.66,15.18,15.18,0,0,0,5.14-6.62,26.51,26.51,0,0,0,1.66-10q0-10.46-6.62-15t-19.76-4.49H278.77Z"/><path class="cls-1" d="M512.47,675.28h-8.89l-12.4-32.59H441.27q-2.68,7.68-5.83,16.25t-6,16.34h-7.86q5-13.15,9.86-25.74t9.67-25q4.82-12.45,9.67-25t9.86-25.64h10.47Zm-23.42-38.42-23.52-56.38-22.31,56.38Z"/><path class="cls-2" d="M281.78,504.42c-68,0-131.8-25.75-179.54-72.49C54.21,384.88,27.75,321.71,27.75,254c0-140.08,114-254,254-254V23c-127.4,0-231,103.65-231,231.06s101.49,227.4,231,227.4Z"/><path class="cls-2" d="M279.59,458a205.49,205.49,0,0,1-61.25-9.34C110.07,414.84,49.49,299.25,83.29,191A205.7,205.7,0,0,1,340.94,55.92c1.34.43,2.68.85,4,1.29C485.81,104,485.24,243.65,485.22,245.07l-23,0A182.59,182.59,0,0,0,337.43,78.94c-1.11-.37-2.22-.73-3.35-1.08a182.71,182.71,0,0,0-228.86,120C75.2,294,129,396.67,225.19,426.7a182.85,182.85,0,0,0,181.24-42.81l15.92,16.56A206,206,0,0,1,279.59,458Z"/><path class="cls-2" d="M275.07,410c-43.13,0-84.58-18.49-114.69-51.42a156.68,156.68,0,0,1-40-127.51c12.33-88.76,90.22-150.4,177.36-140.26a160,160,0,0,1,93.56,273.21l-16.08-16.42a137,137,0,0,0-80.13-234c-74.56-8.59-141.34,44.32-151.94,120.6A133.7,133.7,0,0,0,177.34,343.1c27.18,29.72,65.56,45.59,104.44,43.74v23C279.33,410,277.51,410,275.07,410Z"/><path class="cls-2" d="M279.49,359.07a111.24,111.24,0,0,1-10.95-221.92,119.57,119.57,0,0,1,13.24-.5v22.93a95.11,95.11,0,0,0-10.94.44,88.25,88.25,0,1,0,17.72,175.61c45.74-4.62,80.54-44.57,79.25-90.53h23c1.63,58-42.26,107.58-99.93,113.4Q285.15,359.07,279.49,359.07Z"/></g></g></svg>