<svg xmlns="http://www.w3.org/2000/svg" viewBox="0 0 45.1 45.1"><defs><style>.cls-1{fill:#363636;}</style></defs><title>Asset 24</title><g id="Layer_2" data-name="Layer 2"><g id="OBJECTS"><path class="cls-1" d="M38.5,6.6A22.45,22.45,0,0,0,22.55,0h0A22.56,22.56,0,0,0,6.6,38.5,22.56,22.56,0,0,0,38.5,6.6ZM40,32.18h-6.6a29.7,29.7,0,0,0,1.54-8.31h7.5A19.69,19.69,0,0,1,40,32.18ZM22.55,42.26a18.66,18.66,0,0,1-6.82-7.44H29.37a18.59,18.59,0,0,1-6.82,7.44Zm-8-10.08a26.71,26.71,0,0,1-1.69-8.31H32.26a26.71,26.71,0,0,1-1.69,8.31ZM2.69,23.87h7.5a29.7,29.7,0,0,0,1.54,8.31H5.13a19.69,19.69,0,0,1-2.44-8.31Zm2.44-11h6.6a29.7,29.7,0,0,0-1.54,8.31H2.69a19.69,19.69,0,0,1,2.44-8.31ZM22.55,2.84a18.65,18.65,0,0,1,6.82,7.44H15.73a18.72,18.72,0,0,1,6.82-7.44Zm8,10.08a26.77,26.77,0,0,1,1.69,8.31H12.84a26.77,26.77,0,0,1,1.69-8.31Zm11.84,8.31h-7.5a29.7,29.7,0,0,0-1.54-8.31H40a19.69,19.69,0,0,1,2.44,8.31Zm-10.1-11a23.38,23.38,0,0,0-4.93-7,19.94,19.94,0,0,1,10.84,7Zm-14.59-7a23.56,23.56,0,0,0-4.93,7H6.89a19.88,19.88,0,0,1,10.83-7ZM12.79,34.82a23.61,23.61,0,0,0,4.93,7,20,20,0,0,1-10.83-7Zm14.59,7a23.55,23.55,0,0,0,4.93-7h5.91a20,20,0,0,1-10.84,7Z"/></g></g></svg>