<svg xmlns="http://www.w3.org/2000/svg" viewBox="0 0 135.56 80.2"><defs><style>.cls-1{fill:#363636;}</style></defs><title>Asset 26</title><g id="Layer_2" data-name="Layer 2"><g id="OBJECTS"><path class="cls-1" d="M67.78,23.47A11.74,11.74,0,1,1,79.52,11.74,11.75,11.75,0,0,1,67.78,23.47Zm0-20.54a8.81,8.81,0,1,0,8.81,8.81A8.82,8.82,0,0,0,67.78,2.93Z"/><path class="cls-1" d="M89.9,47.18H45.66a1.47,1.47,0,0,1-1.47-1.47A23.59,23.59,0,0,1,58.36,24.09a1.46,1.46,0,0,1,1.85.6,8.79,8.79,0,0,0,15.15,0,1.46,1.46,0,0,1,1.84-.6A23.59,23.59,0,0,1,91.37,45.71,1.47,1.47,0,0,1,89.9,47.18ZM47.18,44.25H88.39A20.68,20.68,0,0,0,77.13,27.3a11.72,11.72,0,0,1-18.69,0A20.64,20.64,0,0,0,47.18,44.25Z"/><path class="cls-1" d="M23.59,56.11A11.74,11.74,0,1,1,35.33,44.38,11.75,11.75,0,0,1,23.59,56.11Zm0-20.54a8.81,8.81,0,1,0,8.8,8.81A8.82,8.82,0,0,0,23.59,35.57Z"/><path class="cls-1" d="M45.71,79.82H1.47A1.47,1.47,0,0,1,0,78.35,23.59,23.59,0,0,1,14.17,56.73a1.47,1.47,0,0,1,1.85.6,8.78,8.78,0,0,0,15.14,0,1.48,1.48,0,0,1,1.85-.6A23.59,23.59,0,0,1,47.18,78.35,1.47,1.47,0,0,1,45.71,79.82ZM3,76.89H44.19a20.63,20.63,0,0,0-11.25-17,11.73,11.73,0,0,1-18.7,0A20.67,20.67,0,0,0,3,76.89Z"/><path class="cls-1" d="M112,56.49a11.74,11.74,0,1,1,11.73-11.73A11.74,11.74,0,0,1,112,56.49ZM112,36a8.81,8.81,0,1,0,8.8,8.81A8.82,8.82,0,0,0,112,36Z"/><path class="cls-1" d="M134.1,80.2H89.85a1.46,1.46,0,0,1-1.46-1.47,23.59,23.59,0,0,1,14.16-21.62,1.46,1.46,0,0,1,1.85.6,8.79,8.79,0,0,0,15.15,0,1.46,1.46,0,0,1,1.85-.6,23.59,23.59,0,0,1,14.16,21.62A1.46,1.46,0,0,1,134.1,80.2ZM91.37,77.26h41.21a20.65,20.65,0,0,0-11.26-17,11.7,11.7,0,0,1-18.69,0A20.65,20.65,0,0,0,91.37,77.26Z"/></g></g></svg>