<svg xmlns="http://www.w3.org/2000/svg" viewBox="0 0 57.42 30.25"><defs><style>.cls-1{fill:#363636;fill-rule:evenodd;}</style></defs><title>Asset 21</title><g id="Layer_2" data-name="Layer 2"><g id="OBJECTS"><path class="cls-1" d="M52.89,20.93a5.06,5.06,0,0,0-1.63.26L44.09,9.57a5.17,5.17,0,0,0,1.62-3.84,5.17,5.17,0,1,0-10.34,0A5,5,0,0,0,35.88,8L26.4,15.12a4,4,0,0,0-5.72.18L11,9.06a5.81,5.81,0,0,0,.77-3A6,6,0,0,0,5.9,0,6,6,0,0,0,0,6.07a6,6,0,0,0,5.9,6.06A5.73,5.73,0,0,0,9.74,10.6L19.65,17a8,8,0,0,0-.17,1.37,4.19,4.19,0,1,0,8.37,0,3.4,3.4,0,0,0-.34-1.62L37,9.57A4.82,4.82,0,0,0,40.5,11a4.91,4.91,0,0,0,2-.34L49.64,22.3a4.56,4.56,0,0,0-1.37,3.25,4.58,4.58,0,1,0,4.62-4.62Z"/></g></g></svg>