<svg xmlns="http://www.w3.org/2000/svg" viewBox="0 0 58.15 48.27"><defs><style>.cls-1{fill:#363636;}</style></defs><title>Asset 23</title><g id="Layer_2" data-name="Layer 2"><g id="OBJECTS"><path class="cls-1" d="M45.71,48.27H1.47A1.47,1.47,0,0,1,0,46.8V16.94a1.46,1.46,0,0,1,1.47-1.46H45.71a1.46,1.46,0,0,1,1.47,1.46V46.8A1.47,1.47,0,0,1,45.71,48.27ZM2.93,45.34H44.25V18.41H2.93Z"/><path class="cls-1" d="M49,42.64,6.14,31.85a1.47,1.47,0,0,1-1.07-1.78l7.28-29A1.48,1.48,0,0,1,14.13,0L57,10.84a1.47,1.47,0,0,1,1.07,1.78l-7.29,29A1.46,1.46,0,0,1,49,42.64ZM8.27,29.36,48.34,39.44l6.57-26.12L14.84,3.25Z"/></g></g></svg>