<svg xmlns="http://www.w3.org/2000/svg" viewBox="0 0 42.9 42.9"><defs><style>.cls-1{fill:#363636;fill-rule:evenodd;}</style></defs><title>Asset 22</title><g id="Layer_2" data-name="Layer 2"><g id="OBJECTS"><path class="cls-1" d="M.93,17.82l5.15-1a13.09,13.09,0,0,1,1.27-3l-3-4.39a1.13,1.13,0,0,1,.17-1.35L8.11,4.39a1,1,0,0,1,1.35-.08l4.39,3A19.87,19.87,0,0,1,17,6L17.9.85A1.2,1.2,0,0,1,19,0h5.15a1.18,1.18,0,0,1,1.1.85l.93,5.23a13,13,0,0,1,3,1.18l4.3-2.95a1.16,1.16,0,0,1,1.36.17l3.71,3.71a1.15,1.15,0,0,1,.17,1.35l-3,4.31a18.07,18.07,0,0,1,1.27,3l5.15,1a1,1,0,0,1,.84,1v5.24a1,1,0,0,1-.84,1l-5.15,1a18,18,0,0,1-1.27,2.95l3,4.31a1,1,0,0,1-.17,1.35L34.8,38.43a1,1,0,0,1-1.36.08l-4.3-2.87a18.12,18.12,0,0,1-3,1.19l-.93,5.23a1.18,1.18,0,0,1-1.1.84H18.92a1.19,1.19,0,0,1-1-.84L17,36.91a16,16,0,0,1-3-1.27l-4.4,3a1,1,0,0,1-1.35-.09L4.48,34.8a1.14,1.14,0,0,1-.09-1.35l3-4.31a23.09,23.09,0,0,1-1.27-3l-5.15-1a1.07,1.07,0,0,1-.93-1V18.83a1.08,1.08,0,0,1,.93-1ZM21.45,30.41a9,9,0,1,0-8.95-9,9,9,0,0,0,9,9Z"/></g></g></svg>