<svg xmlns="http://www.w3.org/2000/svg" viewBox="0 0 38.51 38.51"><defs><style>.cls-1{fill:#363636;}</style></defs><title>Asset 18</title><g id="Layer_2" data-name="Layer 2"><g id="OBJECTS"><path class="cls-1" d="M27.4,0H11.11A11.12,11.12,0,0,0,0,11.11V27.39A11.12,11.12,0,0,0,11.11,38.51H27.4A11.12,11.12,0,0,0,38.51,27.39V11.11A11.12,11.12,0,0,0,27.4,0M35,27.68a7.37,7.37,0,0,1-7.37,7.38H10.93a7.37,7.37,0,0,1-7.38-7.38V11a7.37,7.37,0,0,1,7.38-7.38H27.59A7.37,7.37,0,0,1,35,11Z"/><path class="cls-1" d="M19.26,9.36a10,10,0,1,0,10,10,10,10,0,0,0-10-10m0,16.47a6.48,6.48,0,1,1,6.47-6.48,6.48,6.48,0,0,1-6.47,6.48"/><path class="cls-1" d="M29.58,6.65A2.33,2.33,0,1,0,31.91,9a2.33,2.33,0,0,0-2.33-2.33"/></g></g></svg>