<svg xmlns="http://www.w3.org/2000/svg" viewBox="0 0 47.18 47.18"><defs><style>.cls-1{fill:#363636;}</style></defs><title>Asset 25</title><g id="Layer_2" data-name="Layer 2"><g id="OBJECTS"><path class="cls-1" d="M23.59,23.47A11.74,11.74,0,1,1,35.33,11.74,11.75,11.75,0,0,1,23.59,23.47Zm0-20.54a8.81,8.81,0,1,0,8.8,8.81A8.82,8.82,0,0,0,23.59,2.93Z"/><path class="cls-1" d="M45.71,47.18H1.47A1.47,1.47,0,0,1,0,45.71,23.59,23.59,0,0,1,14.17,24.09a1.47,1.47,0,0,1,1.85.6,8.78,8.78,0,0,0,15.14,0,1.48,1.48,0,0,1,1.85-.6A23.59,23.59,0,0,1,47.18,45.71,1.47,1.47,0,0,1,45.71,47.18ZM3,44.25H44.19A20.65,20.65,0,0,0,32.94,27.3a11.73,11.73,0,0,1-18.7,0A20.68,20.68,0,0,0,3,44.25Z"/></g></g></svg>