<svg xmlns="http://www.w3.org/2000/svg" viewBox="0 0 39.12 31.79"><defs><style>.cls-1{fill:#363636;}</style></defs><title>Asset 19</title><g id="Layer_2" data-name="Layer 2"><g id="OBJECTS"><path class="cls-1" d="M39.12,3.76A16.23,16.23,0,0,1,34.51,5,8.12,8.12,0,0,0,38,.59a16.12,16.12,0,0,1-5.1,1.94A8,8,0,0,0,19.06,8a7.9,7.9,0,0,0,.21,1.83A22.76,22.76,0,0,1,2.73,1.47a7.9,7.9,0,0,0-1.09,4,8,8,0,0,0,3.57,6.68,8,8,0,0,1-3.64-1v.1A8,8,0,0,0,8,19.15a8.14,8.14,0,0,1-2.11.28,8.31,8.31,0,0,1-1.51-.14,8,8,0,0,0,7.49,5.57,16.13,16.13,0,0,1-10,3.44A15.23,15.23,0,0,1,0,28.18a22.69,22.69,0,0,0,12.3,3.61C27.06,31.79,35.13,19.56,35.13,9c0-.35,0-.69,0-1a16.52,16.52,0,0,0,4-4.16Z"/></g></g></svg>